<svg width="151" height="36" viewBox="0 0 151 36" fill="none" xmlns="http://www.w3.org/2000/svg">
<g clip-path="url(#clip0_54_2)">
<path fill-rule="evenodd" clip-rule="evenodd" d="M14.1778 35.6066L32.0145 17.7049H23.6842L25.9382 15.4426H35.8366V16.5902V26.1967L26.0689 36H17.9673C16.6606 36 15.3865 35.8689 14.1778 35.6066ZM0 18C0 8.06558 8.03628 0 17.9346 0H35.9999L26.0363 10H17.9673C13.9492 10 10.6824 13.2787 10.6824 17.3115C10.6824 21.3443 13.9492 24.623 17.9673 24.623H21.9854L19.7314 26.8852H17.9673C12.7078 26.8852 8.4283 22.5902 8.4283 17.3115C8.4283 12.0328 12.7078 7.73771 17.9673 7.73771H25.1542L30.6424 2.2623H17.9673C9.31033 2.2623 2.25408 9.31148 2.25408 18.0328C2.25408 25.1803 6.99091 31.2131 13.4918 33.1475L11.7277 34.918V34.9508C4.86751 32.3279 0 25.7377 0 18ZM19.176 33.7377H25.1216L33.5825 25.2459V19.3115L19.176 33.7377Z" fill="#FFE977"/>
</g>
<path d="M40.4602 26V16.22H42.9002V17.94C43.3802 16.78 44.4068 16.14 45.9802 16.02L46.7402 15.96L46.9002 18.08L45.4602 18.22C43.8202 18.38 43.0002 19.22 43.0002 20.74V26H40.4602ZM52.9559 26.2C51.8493 26.2 50.8959 25.9933 50.0959 25.58C49.2959 25.1667 48.6759 24.58 48.2359 23.82C47.8093 23.06 47.5959 22.16 47.5959 21.12C47.5959 20.1067 47.8026 19.22 48.2159 18.46C48.6426 17.7 49.2226 17.1067 49.9559 16.68C50.7026 16.24 51.5493 16.02 52.4959 16.02C53.8826 16.02 54.9759 16.46 55.7759 17.34C56.5893 18.22 56.9959 19.42 56.9959 20.94V21.68H49.9959C50.1826 23.4267 51.1826 24.3 52.9959 24.3C53.5426 24.3 54.0893 24.22 54.6359 24.06C55.1826 23.8867 55.6826 23.62 56.1359 23.26L56.8359 24.94C56.3693 25.3267 55.7826 25.6333 55.0759 25.86C54.3693 26.0867 53.6626 26.2 52.9559 26.2ZM52.5959 17.72C51.8626 17.72 51.2693 17.9467 50.8159 18.4C50.3626 18.8533 50.0893 19.4667 49.9959 20.24H54.9159C54.8626 19.4267 54.6359 18.8067 54.2359 18.38C53.8493 17.94 53.3026 17.72 52.5959 17.72ZM63.7958 26.2C62.6891 26.2 61.7358 25.9933 60.9358 25.58C60.1358 25.1667 59.5158 24.58 59.0758 23.82C58.6491 23.06 58.4358 22.16 58.4358 21.12C58.4358 20.1067 58.6424 19.22 59.0558 18.46C59.4824 17.7 60.0624 17.1067 60.7958 16.68C61.5424 16.24 62.3891 16.02 63.3358 16.02C64.7224 16.02 65.8158 16.46 66.6158 17.34C67.4291 18.22 67.8358 19.42 67.8358 20.94V21.68H60.8358C61.0224 23.4267 62.0224 24.3 63.8358 24.3C64.3824 24.3 64.9291 24.22 65.4758 24.06C66.0224 23.8867 66.5224 23.62 66.9758 23.26L67.6758 24.94C67.2091 25.3267 66.6224 25.6333 65.9158 25.86C65.2091 26.0867 64.5024 26.2 63.7958 26.2ZM63.4358 17.72C62.7024 17.72 62.1091 17.9467 61.6558 18.4C61.2024 18.8533 60.9291 19.4667 60.8358 20.24H65.7558C65.7024 19.4267 65.4758 18.8067 65.0758 18.38C64.6891 17.94 64.1424 17.72 63.4358 17.72ZM69.8156 26V16.22H72.2556V17.74C72.589 17.18 73.0356 16.7533 73.5956 16.46C74.169 16.1667 74.809 16.02 75.5156 16.02C77.8223 16.02 78.9756 17.36 78.9756 20.04V26H76.4756V20.16C76.4756 19.4 76.329 18.8467 76.0356 18.5C75.7556 18.1533 75.3156 17.98 74.7156 17.98C73.9823 17.98 73.3956 18.2133 72.9556 18.68C72.529 19.1333 72.3156 19.74 72.3156 20.5V26H69.8156ZM90.5455 26V14.04H85.7055V11.9H97.9455V14.04H93.1055V26H90.5455ZM99.3273 26V11.9H101.827V17.64C102.161 17.1067 102.607 16.7067 103.167 16.44C103.727 16.16 104.347 16.02 105.027 16.02C107.334 16.02 108.487 17.36 108.487 20.04V26H105.987V20.16C105.987 19.4 105.841 18.8467 105.547 18.5C105.267 18.1533 104.827 17.98 104.227 17.98C103.494 17.98 102.907 18.2133 102.467 18.68C102.041 19.1333 101.827 19.74 101.827 20.5V26H99.3273ZM114.567 26.2C112.167 26.2 110.967 24.8533 110.967 22.16V16.22H113.467V22.2C113.467 22.8933 113.607 23.4067 113.887 23.74C114.167 24.0733 114.613 24.24 115.227 24.24C115.893 24.24 116.44 24.0133 116.867 23.56C117.293 23.0933 117.507 22.48 117.507 21.72V16.22H120.007V26H117.567V24.54C116.913 25.6467 115.913 26.2 114.567 26.2ZM122.649 26V16.22H125.089V17.72C125.382 17.1867 125.789 16.7733 126.309 16.48C126.829 16.1733 127.429 16.02 128.109 16.02C129.575 16.02 130.535 16.66 130.989 17.94C131.295 17.34 131.735 16.8733 132.309 16.54C132.882 16.1933 133.535 16.02 134.269 16.02C136.469 16.02 137.569 17.36 137.569 20.04V26H135.069V20.14C135.069 19.3933 134.942 18.8467 134.689 18.5C134.449 18.1533 134.035 17.98 133.449 17.98C132.795 17.98 132.282 18.2133 131.909 18.68C131.535 19.1333 131.349 19.7667 131.349 20.58V26H128.849V20.14C128.849 19.3933 128.722 18.8467 128.469 18.5C128.229 18.1533 127.822 17.98 127.249 17.98C126.595 17.98 126.082 18.2133 125.709 18.68C125.335 19.1333 125.149 19.7667 125.149 20.58V26H122.649ZM145.788 26.2C145.068 26.2 144.421 26.04 143.848 25.72C143.288 25.4 142.868 24.9667 142.588 24.42V26H140.148V11.9H142.648V17.66C142.941 17.1667 143.361 16.7733 143.908 16.48C144.468 16.1733 145.094 16.02 145.788 16.02C146.654 16.02 147.408 16.2267 148.048 16.64C148.688 17.0533 149.188 17.64 149.548 18.4C149.908 19.1467 150.088 20.0467 150.088 21.1C150.088 22.14 149.908 23.0467 149.548 23.82C149.188 24.58 148.681 25.1667 148.028 25.58C147.388 25.9933 146.641 26.2 145.788 26.2ZM145.088 24.3C145.834 24.3 146.434 24.0333 146.888 23.5C147.341 22.9533 147.568 22.1533 147.568 21.1C147.568 20.0333 147.341 19.24 146.888 18.72C146.434 18.1867 145.834 17.92 145.088 17.92C144.341 17.92 143.741 18.1867 143.288 18.72C142.834 19.24 142.608 20.0333 142.608 21.1C142.608 22.1533 142.834 22.9533 143.288 23.5C143.741 24.0333 144.341 24.3 145.088 24.3Z" fill="#FFE977"/>
<defs>
<clipPath id="clip0_54_2">
<rect width="36" height="36" fill="white"/>
</clipPath>
</defs>
</svg>
